<svg width="210" height="65" viewBox="0 0 210 65" fill="none" xmlns="http://www.w3.org/2000/svg">
<g clip-path="url(#clip0_1274_22956)">
<path d="M32.6485 47.845C30.655 45.6493 28.47 43.7908 25.5889 43.0589C29.8175 49.0864 30.7373 55.6054 28.8064 62.5711C28.6614 62.5854 28.5165 62.598 28.3715 62.6123C28.844 57.315 27.6128 52.0678 24.0535 48.0334C21.9687 45.6959 20.1774 43.0769 17.8117 41.0444C20.4852 48.7366 28.0816 56.9239 22.3731 64.9893C23.3108 54.0824 13.4113 46.2969 11.4786 36.0161C9.39203 46.3435 20.4458 54.1972 19.0894 64.4888C17.2855 56.4611 10.3154 50.9843 8.91423 42.8526C7.76537 47.5401 8.18232 51.8293 10.2438 55.9749C-0.847526 47.253 3.92509 31.239 12.5487 22.5888C5.96871 26.7183 1.84568 32.4462 1.04577 40.3501C-0.740156 29.9814 1.70073 21.1985 10.6894 14.8607C10.6107 14.7746 10.5319 14.6885 10.455 14.6024C8.51696 15.5801 6.58072 16.5577 4.71963 17.4959C6.42682 13.6552 11.2513 8.21075 18.5758 6.19082C15.292 6.12086 12.1103 6.73079 8.98044 7.6654C17.2426 1.74556 26.1955 0.760709 35.9107 3.95204C34.2912 2.63353 32.7827 1.40472 31.2723 0.177694C31.2849 0.118495 31.2992 0.0610906 31.3117 0.00189209C38.1154 1.25044 46.5154 4.96021 45.9642 13.2911C42.582 9.22968 38.0635 7.85914 33.2068 6.80613C33.953 7.97395 34.6098 9.00365 35.39 10.2235C31.7251 8.89422 28.1568 8.40269 24.4024 8.28609C27.8902 9.73376 31.2151 10.8334 34.4093 12.708C36.2991 13.7575 35.6334 10.4549 38.6039 11.2083C42.5945 12.1214 47.2902 13.5171 49.0547 17.6125C48.0346 17.2681 47.1077 16.956 46.1932 16.6474C46.7498 20.899 56.4775 23.0498 55.1962 26.2412C54.1261 25.5469 53.4407 24.6069 52.1022 25.285C50.4558 25.9793 49.0833 26.9049 47.2168 27.0036C48.4122 27.7893 49.6738 27.9292 50.9587 28.0046C55.1927 27.696 53.8309 34.7191 50.5507 34.6169C45.7745 34.0087 40.6225 41.4821 42.2527 33.1728C40.6153 34.0356 39.1462 34.8106 37.6752 35.5856C37.6358 35.5264 37.5965 35.4672 37.5571 35.408C39.0137 34.4285 40.4525 33.4221 41.9324 32.4821C42.9489 31.8363 42.9739 31.8776 43.1475 31.0075C40.3934 31.7717 37.9955 33.171 35.5618 34.4895C35.5188 34.4213 35.4759 34.3549 35.4329 34.2868C37.813 32.7494 40.1948 31.2138 42.7037 29.594C39.2213 29.9922 36.4547 31.8417 33.4502 33.1638C34.7118 32.283 35.9734 31.4022 37.3244 30.4604C34.9605 30.8891 33.6255 30.6434 31.9219 28.9697C30.1521 26.7201 27.2835 26.8278 27.0903 30.046C26.684 35.4331 35.1162 35.8798 34.8818 41.222C32.5089 39.0496 29.694 37.7454 27.0384 36.0143C18.6903 30.6434 25.2489 22.1834 31.1184 18.2906C26.4102 19.2378 27.7577 20.4738 23.7815 17.1659C28.4002 14.8535 35.7246 13.9817 38.3051 19.6145C38.586 20.2424 38.9439 20.3949 39.59 20.3177C40.7639 20.1796 41.9503 20.1294 43.3801 20.0253C42.7449 19.3311 42.174 18.7086 41.5459 18.0215C41.9092 17.9839 42.2062 17.9552 42.6321 17.9121C40.5652 16.0662 38.3194 14.8105 35.6548 15.067C33.2193 15.302 30.8858 14.7351 28.4986 14.6616C27.0831 14.5934 19.1144 14.9271 20.0396 17.1587C20.58 18.6315 20.9898 20.1527 21.5643 21.6093C21.7915 22.1852 21.5249 22.3394 21.1813 22.5996C18.2734 24.8025 16.1349 27.5938 14.7784 31.0093C16.4266 29.7662 18.0532 28.5409 19.8499 27.1866C19.1144 30.8784 18.8317 34.5128 22.1494 36.8377C26.208 39.9375 31.0343 42.6338 32.6503 47.845H32.6485Z" fill="#F8D049"/>
<path d="M47.1721 41.647C45.0301 42.0955 43.6396 41.1896 43.2209 39.175C43.1278 38.7284 43.1779 38.427 43.679 38.3068C45.5455 37.8637 47.3887 37.1964 49.2784 37.0098C54.9475 36.6062 53.6609 44.1244 49.6273 45.7963C49.6756 45.4483 49.7043 45.2456 49.758 44.8688C48.2136 46.2466 46.6066 47.1291 44.4413 47.4754C46.6603 45.9882 47.7108 44.1872 47.1739 41.6452L47.1721 41.647Z" fill="#F8D049"/>
<path d="M54.357 29.9885C56.0087 30.6558 56.7353 34.8428 54.1136 34.6293C54.5789 33.0794 55.1015 31.6353 54.357 29.9885Z" fill="#F8D049"/>
</g>
<path d="M70.0155 36.4768L79.5246 15.7856H83.1933L92.7024 36.4768H88.1239L86.1869 31.9864H76.531L74.6233 36.4768H70.0155ZM81.3149 20.6282L78.0572 28.4351H84.6901L81.3736 20.6282H81.3149Z" fill="#F8D049"/>
<path d="M94.4906 36.4768V15.7856H99.0397V32.632H108.608V36.4768H94.4906Z" fill="#F8D049"/>
<path d="M120.206 36.7996C117.975 36.7996 116.067 36.3594 114.483 35.4789C112.898 34.5984 111.675 33.3658 110.814 31.7809C109.973 30.1765 109.552 28.2884 109.552 26.1165C109.552 23.9643 109.973 22.0957 110.814 20.5108C111.675 18.9064 112.898 17.664 114.483 16.7835C116.067 15.903 117.975 15.4628 120.206 15.4628C121.575 15.4628 122.886 15.678 124.139 16.1085C125.391 16.5389 126.418 17.1259 127.22 17.8694L125.811 21.4794C124.931 20.7946 124.041 20.2956 123.141 19.9826C122.26 19.6499 121.331 19.4836 120.352 19.4836C118.376 19.4836 116.879 20.0608 115.862 21.2152C114.864 22.3501 114.365 23.9838 114.365 26.1165C114.365 28.2492 114.864 29.8928 115.862 31.0472C116.879 32.2016 118.376 32.7788 120.352 32.7788C121.331 32.7788 122.26 32.6223 123.141 32.3092C124.041 31.9766 124.931 31.4679 125.811 30.783L127.22 34.393C126.418 35.1169 125.391 35.7039 124.139 36.1539C122.886 36.5844 121.575 36.7996 120.206 36.7996Z" fill="#F8D049"/>
<path d="M127.453 36.4768L136.962 15.7856H140.63L150.14 36.4768H145.561L143.624 31.9864H133.968L132.06 36.4768H127.453ZM138.752 20.6282L135.494 28.4351H142.127L138.811 20.6282H138.752Z" fill="#F8D049"/>
<path d="M150.907 36.4768V33.131L161.238 19.5717H150.907V15.7856H166.551V19.1314L156.19 32.6907H166.991V36.4768H150.907Z" fill="#F8D049"/>
<path d="M167.034 36.4768L176.543 15.7856H180.212L189.721 36.4768H185.142L183.205 31.9864H173.549L171.642 36.4768H167.034ZM178.333 20.6282L175.076 28.4351H181.708L178.392 20.6282H178.333Z" fill="#F8D049"/>
<path d="M191.509 36.4768V15.7856H200.959C203.268 15.7856 205.049 16.3433 206.301 17.4585C207.553 18.5738 208.179 20.1293 208.179 22.1251C208.179 23.6708 207.778 24.9621 206.976 25.9991C206.193 27.0166 205.068 27.7112 203.601 28.0829C204.638 28.396 205.489 29.1493 206.154 30.3428L209.5 36.4768H204.481L200.901 29.8732C200.607 29.3449 200.245 28.983 199.815 28.7873C199.384 28.5721 198.876 28.4645 198.289 28.4645H196.058V36.4768H191.509ZM196.058 25.1774H200.138C202.583 25.1774 203.806 24.1991 203.806 22.2424C203.806 20.3054 202.583 19.3369 200.138 19.3369H196.058V25.1774Z" fill="#F8D049"/>
<path d="M70.8628 47.3844V46.1963H77.9425V47.3844H75.0883V55.3441H73.7125V47.3844H70.8628Z" fill="#F8D049"/>
<path d="M79.507 55.3441V46.1963H80.8872V50.1716H85.4477V46.1963H86.8323V55.3441H85.4477V51.3553H80.8872V55.3441H79.507Z" fill="#F8D049"/>
<path d="M88.8423 55.3441V46.1963H94.5776V47.3844H90.2225V50.1716H94.2783V51.3553H90.2225V54.1559H94.6312V55.3441H88.8423Z" fill="#F8D049"/>
<path d="M99.75 55.3441V46.1963H101.13V50.1716H105.691V46.1963H107.075V55.3441H105.691V51.3553H101.13V55.3441H99.75Z" fill="#F8D049"/>
<path d="M117.032 50.7702C117.032 51.7469 116.853 52.5866 116.496 53.2894C116.138 53.9892 115.648 54.5282 115.026 54.9063C114.407 55.2815 113.702 55.4691 112.913 55.4691C112.121 55.4691 111.414 55.2815 110.792 54.9063C110.172 54.5282 109.684 53.9877 109.327 53.2849C108.969 52.5822 108.791 51.7439 108.791 50.7702C108.791 49.7935 108.969 48.9552 109.327 48.2554C109.684 47.5527 110.172 47.0137 110.792 46.6385C111.414 46.2603 112.121 46.0712 112.913 46.0712C113.702 46.0712 114.407 46.2603 115.026 46.6385C115.648 47.0137 116.138 47.5527 116.496 48.2554C116.853 48.9552 117.032 49.7935 117.032 50.7702ZM115.665 50.7702C115.665 50.0257 115.544 49.3989 115.303 48.8897C115.065 48.3775 114.737 47.9904 114.32 47.7284C113.906 47.4633 113.437 47.3308 112.913 47.3308C112.386 47.3308 111.916 47.4633 111.502 47.7284C111.088 47.9904 110.76 48.3775 110.519 48.8897C110.281 49.3989 110.162 50.0257 110.162 50.7702C110.162 51.5146 110.281 52.1429 110.519 52.6551C110.76 53.1643 111.088 53.5514 111.502 53.8165C111.916 54.0785 112.386 54.2095 112.913 54.2095C113.437 54.2095 113.906 54.0785 114.32 53.8165C114.737 53.5514 115.065 53.1643 115.303 52.6551C115.544 52.1429 115.665 51.5146 115.665 50.7702Z" fill="#F8D049"/>
<path d="M118.752 46.1963H120.427L123.34 53.3073H123.447L126.359 46.1963H128.034V55.3441H126.721V48.7244H126.636L123.938 55.3307H122.848L120.15 48.72H120.066V55.3441H118.752V46.1963Z" fill="#F8D049"/>
<path d="M130.041 55.3441V46.1963H135.776V47.3844H131.421V50.1716H135.477V51.3553H131.421V54.1559H135.83V55.3441H130.041Z" fill="#F8D049"/>
<path d="M148.895 50.7702C148.895 51.7469 148.716 52.5866 148.359 53.2894C148.001 53.9892 147.512 54.5282 146.889 54.9063C146.27 55.2815 145.566 55.4691 144.776 55.4691C143.984 55.4691 143.277 55.2815 142.655 54.9063C142.035 54.5282 141.547 53.9877 141.19 53.2849C140.832 52.5822 140.654 51.7439 140.654 50.7702C140.654 49.7935 140.832 48.9552 141.19 48.2554C141.547 47.5527 142.035 47.0137 142.655 46.6385C143.277 46.2603 143.984 46.0712 144.776 46.0712C145.566 46.0712 146.27 46.2603 146.889 46.6385C147.512 47.0137 148.001 47.5527 148.359 48.2554C148.716 48.9552 148.895 49.7935 148.895 50.7702ZM147.528 50.7702C147.528 50.0257 147.407 49.3989 147.166 48.8897C146.928 48.3775 146.6 47.9904 146.183 47.7284C145.77 47.4633 145.301 47.3308 144.776 47.3308C144.249 47.3308 143.779 47.4633 143.365 47.7284C142.951 47.9904 142.624 48.3775 142.382 48.8897C142.144 49.3989 142.025 50.0257 142.025 50.7702C142.025 51.5146 142.144 52.1429 142.382 52.6551C142.624 53.1643 142.951 53.5514 143.365 53.8165C143.779 54.0785 144.249 54.2095 144.776 54.2095C145.301 54.2095 145.77 54.0785 146.183 53.8165C146.6 53.5514 146.928 53.1643 147.166 52.6551C147.407 52.1429 147.528 51.5146 147.528 50.7702Z" fill="#F8D049"/>
<path d="M150.616 55.3441V46.1963H156.288V47.3844H151.996V50.1716H155.882V51.3553H151.996V55.3441H150.616Z" fill="#F8D049"/>
<path d="M161.314 55.3441V46.1963H162.695V54.1559H166.84V55.3441H161.314Z" fill="#F8D049"/>
<path d="M168.414 55.3441V46.1963H174.149V47.3844H169.794V50.1716H173.85V51.3553H169.794V54.1559H174.203V55.3441H168.414Z" fill="#F8D049"/>
<path d="M183.939 50.7702C183.939 51.7469 183.761 52.5866 183.403 53.2894C183.046 53.9892 182.556 54.5282 181.934 54.9063C181.314 55.2815 180.61 55.4691 179.821 55.4691C179.029 55.4691 178.322 55.2815 177.699 54.9063C177.08 54.5282 176.592 53.9877 176.234 53.2849C175.877 52.5822 175.698 51.7439 175.698 50.7702C175.698 49.7935 175.877 48.9552 176.234 48.2554C176.592 47.5527 177.08 47.0137 177.699 46.6385C178.322 46.2603 179.029 46.0712 179.821 46.0712C180.61 46.0712 181.314 46.2603 181.934 46.6385C182.556 47.0137 183.046 47.5527 183.403 48.2554C183.761 48.9552 183.939 49.7935 183.939 50.7702ZM182.572 50.7702C182.572 50.0257 182.452 49.3989 182.211 48.8897C181.972 48.3775 181.645 47.9904 181.228 47.7284C180.814 47.4633 180.345 47.3308 179.821 47.3308C179.294 47.3308 178.823 47.4633 178.41 47.7284C177.996 47.9904 177.668 48.3775 177.427 48.8897C177.189 49.3989 177.07 50.0257 177.07 50.7702C177.07 51.5146 177.189 52.1429 177.427 52.6551C177.668 53.1643 177.996 53.5514 178.41 53.8165C178.823 54.0785 179.294 54.2095 179.821 54.2095C180.345 54.2095 180.814 54.0785 181.228 53.8165C181.645 53.5514 181.972 53.1643 182.211 52.6551C182.452 52.1429 182.572 51.5146 182.572 50.7702Z" fill="#F8D049"/>
<defs>
<clipPath id="clip0_1274_22956">
<rect width="55.3441" height="64.9874" fill="white" transform="translate(0.5)"/>
</clipPath>
</defs>
</svg>
