<svg width="193" height="193" viewBox="0 0 193 193" fill="none" xmlns="http://www.w3.org/2000/svg">
<rect x="187" y="6" width="181" height="181" rx="12" transform="rotate(90 187 6)" fill="#002411"/>
<rect x="186.5" y="6.5" width="180" height="180" rx="11.5" transform="rotate(90 186.5 6.5)" stroke="url(#paint0_linear_1_2305)"/>
<rect x="0.5" y="0.5" width="192" height="192" rx="15.5" stroke="url(#paint1_linear_1_2305)"/>
<g clip-path="url(#clip0_1_2305)">
<g clip-path="url(#clip1_1_2305)">
<g clip-path="url(#clip2_1_2305)">
<path d="M96.5333 151.681C126.728 151.681 151.206 127.203 151.206 97.0077C151.206 66.8126 126.728 42.3346 96.5333 42.3346C66.3382 42.3346 41.8602 66.8126 41.8602 97.0077C41.8602 127.203 66.3382 151.681 96.5333 151.681Z" fill="#9C7C4D"/>
<path d="M69.213 144.365C56.5682 137.261 47.2632 125.425 43.3452 111.46C39.4272 97.496 41.217 82.547 48.3209 69.9021C55.4248 57.2573 67.2609 47.9523 81.2254 44.0343C95.1899 40.1162 110.139 41.9061 122.784 49.01C123.341 49.3329 123.942 49.6502 124.482 49.9899" fill="#B39262"/>
<path d="M96.5328 139.544C88.12 139.56 79.8913 137.082 72.8872 132.421C65.883 127.761 60.4181 121.129 57.1834 113.363C53.9487 105.597 53.0896 97.0458 54.7146 88.7914C56.3397 80.537 60.3759 72.9499 66.313 66.9895C72.25 61.0291 79.8212 56.9631 88.0692 55.3056C96.3171 53.6482 104.871 54.4737 112.65 57.6779C120.429 60.8821 127.083 66.3209 131.77 73.3067C136.458 80.2925 138.969 88.5115 138.985 96.9242V97.108C138.946 108.353 134.46 119.126 126.506 127.077C118.553 135.027 107.778 139.508 96.5328 139.544ZM96.5328 62.1161C89.6306 62.1161 82.8833 64.1629 77.1444 67.9977C71.4054 71.8325 66.9326 77.283 64.2914 83.66C61.6503 90.037 60.9596 97.0539 62.3065 103.823C63.6535 110.593 66.9777 116.811 71.8587 121.691C76.7397 126.572 82.9584 129.895 89.7281 131.241C96.4979 132.587 103.515 131.895 109.891 129.253C116.268 126.61 121.718 122.137 125.552 116.397C129.385 110.658 131.431 103.91 131.43 97.0078C131.43 92.4253 130.527 87.8876 128.774 83.654C127.02 79.4204 124.449 75.5737 121.209 72.3336C117.968 69.0936 114.121 66.5236 109.887 64.7704C105.653 63.0173 101.115 62.1153 96.5328 62.1161Z" fill="#FFDFAE"/>
<path d="M93.0198 77.3655H100.658V115.67H93.0198V77.3655Z" fill="#FFDFAE"/>
</g>
</g>
</g>
<defs>
<linearGradient id="paint0_linear_1_2305" x1="187" y1="6" x2="400.965" y2="62.7823" gradientUnits="userSpaceOnUse">
<stop stop-color="#1EB359"/>
<stop offset="1" stop-color="#1EB359" stop-opacity="0"/>
</linearGradient>
<linearGradient id="paint1_linear_1_2305" x1="16.9124" y1="12.7721" x2="206.763" y2="36.1113" gradientUnits="userSpaceOnUse">
<stop stop-color="#FFDC99"/>
<stop offset="1" stop-color="#FFF499"/>
</linearGradient>
<clipPath id="clip0_1_2305">
<rect width="110" height="110" fill="white" transform="translate(41 42)"/>
</clipPath>
<clipPath id="clip1_1_2305">
<rect width="109.697" height="109.697" fill="white" transform="translate(41.3029 42)"/>
</clipPath>
<clipPath id="clip2_1_2305">
<rect width="109.909" height="109.697" fill="white" transform="translate(41.303 41.9894)"/>
</clipPath>
</defs>
</svg>
