<svg width="193" height="193" viewBox="0 0 193 193" fill="none" xmlns="http://www.w3.org/2000/svg">
<rect x="187" y="6" width="181" height="181" rx="12" transform="rotate(90 187 6)" fill="#002411"/>
<rect x="186.5" y="6.5" width="180" height="180" rx="11.5" transform="rotate(90 186.5 6.5)" stroke="url(#paint0_linear_1_2318)"/>
<rect x="0.5" y="0.5" width="192" height="192" rx="15.5" stroke="url(#paint1_linear_1_2318)"/>
<g clip-path="url(#clip0_1_2318)">
<path d="M45.0003 70.5382C44.7316 62.5319 50.9379 55.821 58.8715 55.5448C61.1032 55.4686 63.3219 55.9157 65.3499 56.8503C67.3779 57.785 69.1591 59.1813 70.5509 60.9276C67.1816 62.3059 57.2898 67.5305 52.492 82.77C50.2905 81.555 48.4425 79.7887 47.1292 77.6445C45.8159 75.5002 45.0823 73.0514 45.0003 70.5382ZM55.2185 82.3005H82.3056C81.1793 75.2198 77.3088 68.868 71.5325 64.6207C70.9124 64.1638 70.3802 63.8098 69.9684 63.5537C63.4422 68.3463 58.3461 74.8277 55.2286 82.3005H55.2185ZM110.954 82.3005H137.233C134.215 75.0699 129.344 68.763 123.111 64.0156C122.719 64.2667 122.23 64.5931 121.675 65.0023C116.004 69.1689 112.164 75.3674 110.959 82.3005H110.954ZM76.7346 103.977C80.8537 98.7181 82.9465 92.1543 82.632 85.4815H54.0385C51.7139 92.5938 51.2141 100.176 52.5849 107.532C63.0818 107.374 67.2193 100.503 67.2193 100.503L70.0111 103.741C65.3865 109.666 58.3643 111.18 53.4987 111.446C53.8335 112.656 54.2243 113.845 54.6712 115.011C65.5648 114.63 72.469 109.44 76.7396 103.977H76.7346ZM86.4256 91.7455C85.1903 98.8028 82.5592 104.048 79.3029 107.962C81.1307 110.256 86.3327 115.207 97.2062 115.024C97.2062 115.024 105.742 115.795 113.877 108.333C110.633 104.427 108.017 99.187 106.762 92.1271C106.762 92.1271 103.277 71.2362 118.926 61.1912C112.953 57.6272 106.222 55.5256 99.2825 55.0577V71.8789H94.2085V55C87.187 55.3064 80.3404 57.2862 74.239 60.7744C89.9254 70.8169 86.4256 91.7455 86.4256 91.7455ZM135.867 55.7758C133.39 55.3565 130.846 55.5874 128.484 56.446C126.123 57.3046 124.025 58.7614 122.395 60.674C135.157 67.6711 138.845 78.2936 140.196 82.7223C142.184 81.7059 143.907 80.2384 145.226 78.4371C146.546 76.6357 147.426 74.5506 147.795 72.3484C149.108 64.5203 143.768 57.0989 135.867 55.7758ZM123.43 102.938L126.442 99.7293C126.442 99.7293 130.181 106.126 140.04 106.573C140.43 104.184 140.625 101.768 140.625 99.3476C140.629 94.6374 139.882 89.9567 138.413 85.4815H110.59C110.176 92.2808 112.267 98.9962 116.468 104.359C120.62 109.674 127.263 114.733 137.652 115.343C138.269 113.748 138.792 112.118 139.219 110.462C134.404 110.116 127.851 108.516 123.43 102.938ZM94.0679 123.919V120.751C88.3186 120.193 82.0169 117.645 75.6801 111.602C68.7734 117.399 60.5661 118.85 56.5165 119.207C61.7633 129.672 70.921 137.65 82.0069 141.413C84.8655 140.176 87.4247 138.338 89.5111 136.025C92.4701 132.689 94.0928 128.378 94.0679 123.919ZM89.0868 143.168C94.1312 143.982 99.2776 143.928 104.304 143.007C101.087 139.546 98.5046 135.546 96.6739 131.19C94.8713 135.599 92.3027 139.654 89.0868 143.168ZM99.3151 120.741V124.004C99.2876 128.286 100.841 132.427 103.679 135.634C105.798 137.997 108.409 139.867 111.328 141.114C121.926 137.268 130.671 129.546 135.799 119.505C131.632 119.033 124.354 117.477 118.034 112.41C115.403 114.622 108.363 119.832 99.3151 120.741Z" fill="url(#paint2_linear_1_2318)"/>
</g>
<defs>
<linearGradient id="paint0_linear_1_2318" x1="187" y1="6" x2="400.965" y2="62.7823" gradientUnits="userSpaceOnUse">
<stop stop-color="#1EB359"/>
<stop offset="1" stop-color="#1EB359" stop-opacity="0"/>
</linearGradient>
<linearGradient id="paint1_linear_1_2318" x1="16.9124" y1="12.7721" x2="206.763" y2="36.1113" gradientUnits="userSpaceOnUse">
<stop stop-color="#FFDC99"/>
<stop offset="1" stop-color="#FFF499"/>
</linearGradient>
<linearGradient id="paint2_linear_1_2318" x1="66.8025" y1="64.3395" x2="146.148" y2="130.005" gradientUnits="userSpaceOnUse">
<stop stop-color="#EA3570"/>
<stop offset="0.88" stop-color="#138FC9"/>
</linearGradient>
<clipPath id="clip0_1_2318">
<rect width="102.993" height="88.7405" fill="white" transform="translate(45 55)"/>
</clipPath>
</defs>
</svg>
