<svg width="725" height="207" viewBox="0 0 725 207" fill="none" xmlns="http://www.w3.org/2000/svg">
<path d="M380 78C488.966 78 586.468 127.001 651.606 204.135C652.565 205.271 651.754 207 650.267 207H109.733C108.246 207 107.435 205.271 108.394 204.135C173.532 127.001 271.034 78 380 78Z" fill="url(#paint0_linear_1_2045)"/>
<path d="M634.778 165.149C601.478 131.812 561.945 105.369 518.436 87.3272C474.927 69.2858 428.294 60 381.201 60C334.107 60 287.475 69.2858 243.966 87.3273C200.457 105.369 160.924 131.812 127.624 165.149C118.889 173.893 110.628 183.066 102.868 192.628C102.677 192.863 102.391 193 102.088 193C101.248 193 100.781 192.028 101.311 191.375C109.116 181.757 117.425 172.53 126.211 163.734C159.697 130.213 199.45 103.621 243.201 85.4795C286.953 67.3375 333.845 58 381.201 58C428.557 58 475.449 67.3375 519.2 85.4795C562.952 103.621 602.705 130.212 636.191 163.734C644.824 172.377 652.996 181.436 660.683 190.873C661.214 191.526 660.749 192.5 659.907 192.5C659.605 192.5 659.319 192.364 659.129 192.13C651.486 182.747 643.361 173.741 634.778 165.149Z" fill="url(#paint1_linear_1_2045)"/>
<path d="M332.328 33.32H332.36L334.92 37.512H341.128L337.352 32.232C340.68 30.536 342.6 26.984 342.6 22.28C342.6 15.592 338.728 11.24 332.328 11.24C325.928 11.24 322.024 15.592 322.024 22.28C322.024 28.968 325.928 33.32 332.328 33.32ZM332.328 28.68C328.648 28.68 327.144 27.304 327.144 22.28C327.144 17.256 328.648 15.88 332.328 15.88C336.008 15.88 337.48 17.256 337.48 22.28C337.48 27.304 336.008 28.68 332.328 28.68ZM362.121 33V28.68H353.929L350.473 28.744C350.473 27.72 351.785 27.048 353.545 26.248L356.777 24.84C359.561 23.592 362.185 21.704 362.185 17.992C362.185 14.12 359.913 11.24 354.249 11.24C347.881 11.24 345.321 14.664 345.321 18.824V19.336H350.121V18.792C350.121 16.488 350.761 15.624 353.865 15.624C356.713 15.624 357.417 16.488 357.417 18.024C357.417 19.432 356.745 20.136 354.857 21.032L351.145 22.792C348.169 24.232 345.353 25.96 345.353 30.12V33H362.121Z" fill="url(#paint2_linear_1_2045)"/>
<path opacity="0.5" d="M8.496 185.24H8.52L10.44 188.384H15.096L12.264 184.424C14.76 183.152 16.2 180.488 16.2 176.96C16.2 171.944 13.296 168.68 8.496 168.68C3.696 168.68 0.768 171.944 0.768 176.96C0.768 181.976 3.696 185.24 8.496 185.24ZM8.496 181.76C5.736 181.76 4.608 180.728 4.608 176.96C4.608 173.192 5.736 172.16 8.496 172.16C11.256 172.16 12.36 173.192 12.36 176.96C12.36 180.728 11.256 181.76 8.496 181.76ZM24.5528 185V168.92H21.2888C20.5208 170.36 19.5848 170.912 18.0728 170.912H17.3528V173.48H20.9768V185H24.5528Z" fill="url(#paint3_linear_1_2045)"/>
<path opacity="0.5" d="M701.496 185.24H701.52L703.44 188.384H708.096L705.264 184.424C707.76 183.152 709.2 180.488 709.2 176.96C709.2 171.944 706.296 168.68 701.496 168.68C696.696 168.68 693.768 171.944 693.768 176.96C693.768 181.976 696.696 185.24 701.496 185.24ZM701.496 181.76C698.736 181.76 697.608 180.728 697.608 176.96C697.608 173.192 698.736 172.16 701.496 172.16C704.256 172.16 705.36 173.192 705.36 176.96C705.36 180.728 704.256 181.76 701.496 181.76ZM717.481 185.24C721.537 185.24 724.105 183.704 724.105 180.584C724.105 178.208 722.713 176.816 720.409 176.6V176.456C722.521 176.216 723.433 174.92 723.433 173.024C723.433 170.144 721.129 168.68 717.337 168.68C713.209 168.68 710.833 170.648 710.833 173.84V174.104H714.361V173.888C714.361 172.424 715.105 171.992 717.241 171.992C718.921 171.992 719.833 172.424 719.833 173.696C719.833 174.992 719.281 175.28 717.841 175.28H714.841V178.208H718.225C719.785 178.208 720.457 178.52 720.457 180.104C720.457 181.592 719.449 181.928 717.481 181.928C714.913 181.928 714.361 181.496 714.361 180.032V179.552H710.833V180.08C710.833 183.272 712.633 185.24 717.481 185.24Z" fill="url(#paint4_linear_1_2045)"/>
<rect x="369.5" y="48.5" width="21" height="21" rx="4.5" stroke="#2BFF80"/>
<rect x="373" y="52" width="14" height="14" rx="2" fill="#00160A" stroke="#2BFF80" stroke-width="2"/>
<defs>
<linearGradient id="paint0_linear_1_2045" x1="380" y1="78" x2="380" y2="206.788" gradientUnits="userSpaceOnUse">
<stop stop-color="#1EB059"/>
<stop offset="1" stop-color="#002411" stop-opacity="0"/>
</linearGradient>
<linearGradient id="paint1_linear_1_2045" x1="381" y1="58" x2="381" y2="193" gradientUnits="userSpaceOnUse">
<stop stop-color="#1EB359"/>
<stop offset="1" stop-color="#1EB359" stop-opacity="0"/>
</linearGradient>
<linearGradient id="paint2_linear_1_2045" x1="321" y1="24" x2="364" y2="24" gradientUnits="userSpaceOnUse">
<stop stop-color="#E6FDC8" stop-opacity="0.5"/>
<stop offset="0.497917" stop-color="#E6FDC8"/>
<stop offset="1" stop-color="#E6FDC8" stop-opacity="0.5"/>
</linearGradient>
<linearGradient id="paint3_linear_1_2045" x1="5.36236e-07" y1="178" x2="26" y2="178" gradientUnits="userSpaceOnUse">
<stop stop-color="#E6FDC8" stop-opacity="0.5"/>
<stop offset="0.497917" stop-color="#E6FDC8"/>
<stop offset="1" stop-color="#E6FDC8" stop-opacity="0.5"/>
</linearGradient>
<linearGradient id="paint4_linear_1_2045" x1="693" y1="178" x2="725" y2="178" gradientUnits="userSpaceOnUse">
<stop stop-color="#E6FDC8" stop-opacity="0.5"/>
<stop offset="0.497917" stop-color="#E6FDC8"/>
<stop offset="1" stop-color="#E6FDC8" stop-opacity="0.5"/>
</linearGradient>
</defs>
</svg>
