<svg width="48" height="48" viewBox="0 0 48 48" fill="none" xmlns="http://www.w3.org/2000/svg">
<path fill-rule="evenodd" clip-rule="evenodd" d="M17.3065 7.67281C21.208 5.40585 26.0037 5.44547 29.8686 7.7766C33.6955 10.1552 36.0214 14.4003 35.9998 18.9669C35.9107 23.5035 33.4167 27.7679 30.2991 31.0645C28.4997 32.9758 26.4868 34.6658 24.3015 36.1001C24.0765 36.2303 23.8299 36.3174 23.5741 36.3572C23.3279 36.3467 23.0881 36.274 22.8764 36.1455C19.5401 33.9904 16.6131 31.2394 14.2363 28.025C12.2475 25.3418 11.1176 22.1001 11 18.7401C10.9974 14.1647 13.4049 9.93977 17.3065 7.67281ZM19.5612 20.634C20.2175 22.2519 21.7666 23.3073 23.4852 23.3073C24.6111 23.3154 25.6934 22.8644 26.491 22.0549C27.2885 21.2453 27.735 20.1444 27.731 18.9975C27.737 17.2469 26.7064 15.6653 25.1203 14.9911C23.5343 14.3169 21.7057 14.6832 20.4883 15.9189C19.2709 17.1546 18.9049 19.016 19.5612 20.634Z" fill="url(#paint0_linear_1_1953)"/>
<ellipse opacity="0.7" cx="23.5" cy="39.9287" rx="8.92859" ry="1.78572" fill="#FFDC99"/>
<defs>
<linearGradient id="paint0_linear_1_1953" x1="13.1907" y1="8.00894" x2="37.9013" y2="10.5106" gradientUnits="userSpaceOnUse">
<stop stop-color="#FFDC99"/>
<stop offset="1" stop-color="#FFF499"/>
</linearGradient>
</defs>
</svg>
