<svg width="37" height="34" viewBox="0 0 37 34" fill="none" xmlns="http://www.w3.org/2000/svg">
<path d="M16 32C24.8366 32 32 24.8366 32 16C32 7.16344 24.8366 0 16 0C7.16344 0 0 7.16344 0 16C0 24.8366 7.16344 32 16 32Z" fill="url(#paint0_linear_1_1940)"/>
<g filter="url(#filter0_d_1_1940)">
<path d="M24.0303 11.838C23.5182 12.0418 22.9737 12.1866 22.4023 12.2509C23.0061 11.897 23.475 11.3501 23.723 10.6959C23.7392 10.6531 23.6907 10.6155 23.6529 10.637C23.0815 10.9533 22.4616 11.1839 21.7985 11.3126C21.2325 10.7228 20.4293 10.3528 19.5398 10.3528C17.8309 10.3528 16.4455 11.7094 16.4455 13.3823C16.4455 13.6182 16.4725 13.8488 16.5264 14.074C13.9604 13.9453 11.6855 12.7496 10.1599 10.9265C10.1545 10.9158 10.1384 10.9211 10.133 10.9265C9.87423 11.3715 9.72868 11.8809 9.72868 12.4278C9.72868 13.4573 10.2516 14.3635 11.0548 14.9158C11.071 14.9265 11.0602 14.9533 11.044 14.948C10.5696 14.9211 10.1276 14.7925 9.73406 14.5833C9.72328 14.578 9.70711 14.5833 9.7125 14.5994C9.7179 14.7335 9.76641 15.3287 9.92274 15.7094C10.3109 16.6531 11.1518 17.3769 12.1976 17.586C11.9389 17.6557 11.6639 17.6933 11.3782 17.6933C11.1896 17.6933 11.0063 17.6772 10.823 17.6396C10.8122 17.6396 10.8014 17.6504 10.8014 17.6611C11.2003 18.8354 12.3108 19.6933 13.6316 19.7362C13.6477 19.7362 13.6585 19.7576 13.6423 19.7683C12.5912 20.5619 11.2704 21.0337 9.83649 21.0337C9.58852 21.0337 9.34054 21.0177 9.09796 20.9909C10.4672 21.8488 12.0952 22.3528 13.8418 22.3528C16.2515 22.3528 18.1975 21.527 19.6422 20.2724C21.0977 19.0069 22.0465 17.2965 22.44 15.5592C22.5802 14.948 22.6503 14.3313 22.6503 13.7308C22.6503 13.6021 22.6449 13.4681 22.6395 13.3394C23.2001 12.9426 23.6907 12.4547 24.0896 11.9024C24.1166 11.8702 24.0734 11.8166 24.0303 11.838Z" fill="#E6FDC8"/>
</g>
<path d="M31.5 16C31.5 24.5604 24.5604 31.5 16 31.5C7.43959 31.5 0.5 24.5604 0.5 16C0.5 7.43959 7.43959 0.5 16 0.5C24.5604 0.5 31.5 7.43959 31.5 16Z" stroke="url(#paint1_linear_1_1940)"/>
<defs>
<filter id="filter0_d_1_1940" x="1.09796" y="1.35278" width="35" height="32" filterUnits="userSpaceOnUse" color-interpolation-filters="sRGB">
<feFlood flood-opacity="0" result="BackgroundImageFix"/>
<feColorMatrix in="SourceAlpha" type="matrix" values="0 0 0 0 0 0 0 0 0 0 0 0 0 0 0 0 0 0 127 0" result="hardAlpha"/>
<feOffset dx="2" dy="1"/>
<feGaussianBlur stdDeviation="5"/>
<feComposite in2="hardAlpha" operator="out"/>
<feColorMatrix type="matrix" values="0 0 0 0 0.168627 0 0 0 0 1 0 0 0 0 0.501961 0 0 0 0.3 0"/>
<feBlend mode="normal" in2="BackgroundImageFix" result="effect1_dropShadow_1_1940"/>
<feBlend mode="normal" in="SourceGraphic" in2="effect1_dropShadow_1_1940" result="shape"/>
</filter>
<linearGradient id="paint0_linear_1_1940" x1="6.59982e-07" y1="16" x2="32" y2="16" gradientUnits="userSpaceOnUse">
<stop stop-color="#0B4121" stop-opacity="0.7"/>
<stop offset="0.497917" stop-color="#0B4121"/>
<stop offset="1" stop-color="#0B4121" stop-opacity="0.7"/>
</linearGradient>
<linearGradient id="paint1_linear_1_1940" x1="0" y1="0" x2="37.8281" y2="10.0389" gradientUnits="userSpaceOnUse">
<stop stop-color="#1EB359"/>
<stop offset="1" stop-color="#1EB359" stop-opacity="0"/>
</linearGradient>
</defs>
</svg>
