<svg width="24" height="24" viewBox="0 0 24 24" fill="none" xmlns="http://www.w3.org/2000/svg">
<path opacity="0.7" d="M15.7975 13.1904L19.4967 13.5176C20.3269 13.5176 21 12.8379 21 11.9997C21 11.1614 20.3269 10.4818 19.4967 10.4818L15.7975 10.8089C15.1463 10.8089 14.6183 11.3421 14.6183 11.9997C14.6183 12.6584 15.1463 13.1904 15.7975 13.1904Z" fill="url(#paint0_linear_1_2488)"/>
<path d="M3.37534 13.1302C3.43316 13.1885 3.64915 13.4353 3.85206 13.6402C5.03568 14.9234 8.12619 17.0218 9.7429 17.664C9.98835 17.7665 10.6091 17.9846 10.9418 18C11.2592 18 11.5625 17.9262 11.8516 17.7808C12.2127 17.577 12.5007 17.2554 12.66 16.8764C12.7614 16.6143 12.9207 15.8267 12.9207 15.8124C13.0789 14.9521 13.165 13.5531 13.165 12.0066C13.165 10.535 13.0789 9.19332 12.949 8.31871C12.9349 8.30329 12.7756 7.32623 12.6021 6.99137C12.2847 6.37892 11.664 6 10.9996 6H10.9418C10.5087 6.01432 9.5989 6.39435 9.5989 6.40756C8.06837 7.04975 5.05096 9.04681 3.83788 10.3742C3.83788 10.3742 3.49534 10.7156 3.34698 10.9282C3.11571 11.2344 3.00007 11.6134 3.00007 11.9923C3.00007 12.4153 3.12989 12.8085 3.37534 13.1302Z" fill="url(#paint1_linear_1_2488)"/>
<defs>
<linearGradient id="paint0_linear_1_2488" x1="20.5777" y1="13.2516" x2="20.401" y2="10.2305" gradientUnits="userSpaceOnUse">
<stop stop-color="#FFDC99"/>
<stop offset="1" stop-color="#FFF499"/>
</linearGradient>
<linearGradient id="paint1_linear_1_2488" x1="12.4924" y1="16.9485" x2="10.7892" y2="5.21302" gradientUnits="userSpaceOnUse">
<stop stop-color="#FFDC99"/>
<stop offset="1" stop-color="#FFF499"/>
</linearGradient>
</defs>
</svg>
